<?xml version="1.0" encoding="utf-8"?>
<!-- Generator: Adobe Illustrator 22.0.1, SVG Export Plug-In . SVG Version: 6.00 Build 0)  -->
<svg version="1.1" id="Layer_1" xmlns="http://www.w3.org/2000/svg" xmlns:xlink="http://www.w3.org/1999/xlink" x="0px" y="0px"
	 viewBox="0 0 1280 640" style="enable-background:new 0 0 1280 640;" xml:space="preserve">
<style type="text/css">
	.st0{fill:#222629;}
</style>
<g>
	<g>
		<path class="st0" d="M526.4,446.7v-184h77.2c35.9,0,53.8,16.9,53.8,50.6c0,33.2-28.7,54.3-86.1,63.4l-2.3-12.4
			c48.9-6.8,73.3-23.5,73.3-50c0-26.4-13.6-39.6-40.9-39.6h-61.5v172H526.4z"/>
		<path class="st0" d="M705,262.7v184h-13.5v-184H705z"/>
		<path class="st0" d="M738.5,408.5c0-26.8,17.8-40.3,53.5-40.3c12.6,0,26.1,0.9,40.4,2.6v-16.6c0-20.7-13-31-39-31
			c-14.8,0-29.4,2.1-44,6.4V318c14.6-4.3,29.2-6.4,44-6.4c35,0,52.5,14,52.5,41.9v93.2h-8.2l-3.1-13.4
			c-16.9,8.9-33.3,13.4-49.1,13.4C754.1,446.7,738.5,433.9,738.5,408.5z M792,379.8c-26.7,0-40,9.4-40,28.3c0,18,11.1,27,33.5,27
			c16.5,0,32.1-4.4,47-13.1v-39.6C818.1,380.6,804.6,379.8,792,379.8z"/>
		<path class="st0" d="M880.1,446.7V311.6h9.6l1.7,17.2c17.2-11.5,34.1-17.2,50.7-17.2c32.9,0,49.3,14.2,49.3,42.6v92.5h-13.5v-92.9
			c0-20.1-12.1-30.1-36.4-30.1c-16.2,0-32.2,5.7-47.9,17.1v105.9H880.1z"/>
		<path class="st0" d="M1058.8,446.7v-184h86.2c35,0,52.5,14.3,52.5,42.8c0,20.9-11.4,35.9-34.2,44.9c24.4,4.5,36.5,18.5,36.5,41.8
			c0,36.3-19.2,54.4-57.5,54.4H1058.8z M1140.8,417.1c15.1,0,22.6-7.7,22.6-23.2c0-19.1-11.3-28.7-33.8-28.7h-10.3v-22
			c28.3-4.7,42.5-16.6,42.5-35.5c0-10.3-6.4-15.4-19-15.4h-49.9v124.8H1140.8z"/>
	</g>
	<g>
		<path class="st0" d="M409.9,156.2c-0.5-18.1-15.3-35.4-33.1-38.6L276.5,99.6c-14.4-2.6-37.8-2.6-52.2-0.1l-103,18.2
			c-17.8,3.2-32.7,20.4-33.2,38.5l-7.7,286.8c-0.1,2.2-0.2,4-0.2,5.8c0,22.6,25.8,45,76.7,66.7c37.2,15.8,78.3,26.9,91.8,26.9
			c22.6,0,120.6-29.4,154.9-65.2c2.7-2.6,5.1-5.6,7.1-8.6c3.7-5.5,5.8-11,6.4-16.6c0.4-2.4,0.5-4.7,0.5-6.9L409.9,156.2z M398,445.6
			c0,1.1-0.1,2.3-0.3,3.6l-0.1,0.6c-0.2,2.4-1.3,5-3.2,7.9l-0.2,0.2c-1.2,1.9-2.6,3.6-4.4,5.4c-30.7,32-125.1,59.4-141,59.4
			c-9.7,0-47-9.8-83.3-25.1c-41.1-17.3-65.6-35.6-65.6-48.8c0-1.3,0.1-2.8,0.2-4.7l7.7-287.3c0.2-8.9,8.1-18.1,16.9-19.6l103-18.2
			c5.7-1,13.9-1.6,22.3-1.6c8.7,0,17.1,0.6,22.9,1.7L373.3,137c8.8,1.6,16.7,10.8,16.9,19.7L398,445.6z"/>
		<path class="st0" d="M230.4,223.3c0-3.2-2.6-5.8-5.8-5.8c-3.2,0-5.8,2.6-5.8,5.8c0,3.2,2.6,5.8,5.8,5.8
			C227.8,229.1,230.4,226.5,230.4,223.3z"/>
		<path class="st0" d="M142.3,323.2l0.4,0.6c2.6,3.8,5.2,5.7,6.6,6.7c0.2,0.2,0.5,0.3,0.6,0.5c1,0.8,2.1,1.6,3.4,2.5l0.6,0.4
			c0.4,0.2,0.7,0.4,1.1,0.6c1.6,0.9,3.2,1.7,4.9,2.3c0.7,0.3,1.4,0.5,2.2,0.7c0.3,0.1,0.6,0.2,0.8,0.2c0.4,0.1,0.8,0.2,1.4,0.3
			l0.3,0.1c0.3,0.1,0.6,0.1,1,0.2c1.9,0.3,3.7,0.5,5.5,0.5c3.2,0,5.8-2.6,5.8-5.8c0-3.2-2.6-5.8-5.8-5.8
			c-12.5,0-23.4-11.6-23.4-24.9c0-8,4.1-15.4,10.9-19.7c2.6-1.6,3.4-5,1.9-7.7c-2.1-3.7-3.1-7.5-3.1-11.5
			c0-13.2,10.9-24.9,23.4-24.9s23.4,11.6,23.4,24.9c0,3.2,2.6,5.8,5.8,5.8c3.2,0,5.8-2.6,5.8-5.8c0-19.7-16-36.4-34.9-36.4
			c-1.3,0-2.6,0.1-3.9,0.2c0.3-9.9,8.5-17.9,18.5-17.9c5,0,9.6,1.9,13.1,5.4c2.3,2.2,5.9,2.2,8.2,0c1.1-1.1,1.7-2.5,1.7-4.1
			c0-1.5-0.6-3-1.7-4.1c-4.2-4.2-9.4-7-15.2-8.2c4.7-6.3,11.4-10,18.2-10c12.5,0,23.4,11.6,23.4,24.9v36.6c-2.7-1.3-5.8-2-8.8-2
			c-3.2,0-5.8,2.6-5.8,5.8c0,3.2,2.6,5.8,5.8,5.8c4.9,0,8.8,4,8.8,8.8v36l0,0.9h0.1c0.5,2.7,2.8,4.8,5.7,4.8c3.2,0,5.7-2.6,5.8-5.8
			v-36c0-4.9,4-8.8,8.8-8.8c3.2,0,5.8-2.6,5.8-5.8c0-3.2-2.6-5.8-5.8-5.8c-3.1,0-6.1,0.7-8.8,2v-36.6c0-13.2,10.9-24.9,23.4-24.9
			c6.8,0,13.6,3.7,18.2,10c-5.8,1.2-11,4-15.2,8.2c-1.1,1.1-1.7,2.5-1.7,4.1c0,1.5,0.6,3,1.7,4.1c1.1,1.1,2.5,1.7,4.1,1.7
			c0,0,0,0,0,0c1.5,0,3-0.6,4.1-1.7c3.5-3.5,8.2-5.4,13.1-5.4c10,0,18.2,8,18.5,17.9c-1.3-0.2-2.6-0.2-3.9-0.2
			c-18.9,0-34.9,16.7-34.9,36.4c0,3.2,2.6,5.8,5.8,5.8c3.2,0,5.8-2.6,5.8-5.8c0-13.2,10.9-24.9,23.4-24.9s23.4,11.6,23.4,24.9
			c0,3.9-1.1,7.8-3.1,11.5c-1.5,2.7-0.7,6.1,1.9,7.7c6.8,4.3,10.9,11.7,10.9,19.7c0,13.2-10.9,24.9-23.4,24.9
			c-3.2,0-5.8,2.6-5.8,5.8c0,3.2,2.6,5.8,5.8,5.8c7.3,0,14.5-2.6,20.6-7.3l0,0l1.2-1c0.2-0.1,0.4-0.3,0.6-0.5c1.3-1,3.7-2.8,6.2-6.3
			l0.3-0.6l0,0c3.8-6,6.1-13.7,6.1-20.8c0-10.2-4.4-19.8-12.1-26.4c1.6-4,2.4-8.2,2.4-12.5c0-13.6-7.7-26.3-19.6-32.6
			c1.5-14.7-8.1-28.3-22.4-32c-5.8-13.1-18.6-21.8-31.8-21.8c-11.6,0-22.6,6.3-29.2,16.7c-6.5-10.3-17.6-16.7-29.2-16.7
			c-13.2,0-25.9,8.8-31.8,21.8c-14.4,3.7-23.9,17.3-22.4,32c-11.9,6.2-19.6,19-19.6,32.6c0,4.3,0.8,8.5,2.4,12.5
			c-7.7,6.6-12.1,16.2-12.1,26.4C136.3,309.6,138.5,317.3,142.3,323.2L142.3,323.2z"/>
		<path class="st0" d="M190.6,306.5c-3.2,0-5.8,2.6-5.8,5.8c0,3.2,2.6,5.8,5.8,5.8c11.9,0,22.1-8.3,24.6-19.8c6.8-1,13-3.9,18.1-8.5
			c2.4-2.1,2.6-5.8,0.5-8.1c-1-1.1-2.4-1.8-4-1.9c-1.5-0.1-3,0.4-4.2,1.5c-6.9,6.2-16.6,7.7-25.1,3.9c-8.6-3.8-13.9-12-13.9-21.3
			c0-3.2-2.6-5.8-5.8-5.8c-3.2,0-5.8,2.6-5.8,5.8c0,16.8,11.8,31.1,28.2,34.3C201.3,303.1,196.3,306.5,190.6,306.5z"/>
		<path class="st0" d="M322.8,263.6c0-3.2-2.6-5.8-5.8-5.8s-5.8,2.6-5.8,5.8c0,12.9-10.5,23.4-23.4,23.4c-5.8,0-11.3-2.1-15.6-6
			c-1.1-1-2.6-1.6-4.2-1.5c-1.5,0.1-3,0.8-4,1.9c-1,1.1-1.5,2.6-1.5,4.2c0.1,1.5,0.8,3,1.9,4c5.1,4.6,11.3,7.5,18.1,8.5
			c2.5,11.5,12.8,19.8,24.6,19.8c3.2,0,5.8-2.6,5.8-5.8c0-3.2-2.6-5.8-5.8-5.8c-5.6,0-10.6-3.4-12.7-8.6
			C311,294.7,322.8,280.4,322.8,263.6z"/>
		<path class="st0" d="M279,223.3c0-3.2-2.6-5.8-5.8-5.8s-5.8,2.6-5.8,5.8c0,3.2,2.6,5.8,5.8,5.8S279,226.5,279,223.3z"/>
		<path class="st0" d="M375,383.9c-5.7-3.3-12.9-2.4-17.6,2.3c-1.5,1.5-2.6,3.3-3.4,5.2h-54.9v-2h4.9c8.1,0,14.7-6.6,14.7-14.7
			c0-2.5,2.1-4.6,4.6-4.6h0.3c2.3,6.3,8.8,10.2,15.5,9.4c7.2-0.9,12.7-7.1,12.7-14.4c0-7.3-5.5-13.5-12.7-14.4
			c-6.7-0.9-13.1,3-15.5,9.4h-0.3c-8.1,0-14.7,6.6-14.7,14.7c0,2.5-2.1,4.6-4.6,4.6h-4.9v-16.1c0-9.3-7.6-16.8-16.8-16.8l-5.8,0
			v-7.8l-1.2,0l0,0l1.2,0c0-2.8-2.3-5-5-5c-2.7,0-5,2.2-5,5v7.8l-12.4,0l0-22.9c0-2.8-2.3-5-5-5c-2.7,0-5,2.2-5,5l0,22.8l-12.4,0
			v-7.8l-1.2,0l0,0l1.2,0c0-2.8-2.3-5-5-5c-2.7,0-5,2.2-5,5v7.8l-5.8,0c-9.3,0-16.8,7.6-16.8,16.8v16h-4.9c-2.5,0-4.6-2.1-4.6-4.6
			c0-8.1-6.6-14.7-14.7-14.7h-0.3c-2.3-6.3-8.7-10.2-15.5-9.4c-7.2,0.9-12.7,7.1-12.7,14.4s5.5,13.5,12.7,14.4
			c6.7,0.9,13.1-3,15.5-9.4h0.3c2.5,0,4.6,2.1,4.6,4.6c0,8.1,6.6,14.7,14.7,14.7h4.9v2h-54.9c-2.3-6.3-8.8-10.2-15.5-9.4
			c-7.2,0.9-12.7,7.1-12.7,14.4c0,7.3,5.5,13.5,12.7,14.4c6.7,0.9,13.2-3,15.5-9.4h54.9v2h-4.9c-8.1,0-14.7,6.6-14.7,14.7
			c0,2.5-2.1,4.6-4.6,4.6h-0.3c-2.3-6.3-8.7-10.2-15.5-9.4c-7.2,0.9-12.7,7.1-12.7,14.4c0,7.3,5.5,13.5,12.7,14.4
			c6.8,0.9,13.2-3,15.5-9.4h0.3c8.1,0,14.7-6.6,14.7-14.7c0-2.5,2.1-4.6,4.6-4.6h4.9v16c0,9.3,7.6,16.8,16.8,16.8h66.6
			c9.3,0,16.8-7.6,16.8-16.8v-16h4.9c2.5,0,4.6,2.1,4.6,4.6c0,8.1,6.6,14.7,14.7,14.7h0.3c2.3,6.3,8.7,10.2,15.5,9.4
			c7.2-0.9,12.7-7.1,12.7-14.4s-5.5-13.5-12.7-14.4c-6.8-0.9-13.2,3-15.5,9.4h-0.3c-2.5,0-4.6-2.1-4.6-4.6c0-8.1-6.6-14.7-14.7-14.7
			h-4.9v-2H354c2.1,5.7,7.5,9.5,13.7,9.5c6.6,0,12.3-4.4,14.1-10.7C383.5,394,380.7,387.2,375,383.9z M370.8,399.7
			c-0.8,0.8-1.9,1.3-3.1,1.3c0,0,0,0,0,0c-1.2,0-2.3-0.5-3.1-1.3c-0.8-0.8-1.3-1.9-1.3-3.1c0-1.2,0.5-2.3,1.3-3.1
			c0.8-0.8,1.9-1.3,3.1-1.3c1.2,0,2.3,0.5,3.1,1.3C372.5,395.1,372.5,397.9,370.8,399.7z M332.9,365c0-1.2,0.5-2.3,1.3-3.1l0,0
			c0.8-0.8,1.9-1.3,3.1-1.3c1.2,0,2.3,0.5,3.1,1.3c0.8,0.8,1.3,1.9,1.3,3.1s-0.5,2.3-1.3,3.1c-0.8,0.8-1.9,1.3-3.1,1.3h0
			c-1.2,0-2.3-0.5-3.1-1.3C333.4,367.3,332.9,366.2,332.9,365z M289,429.8c0,3.7-3,6.7-6.7,6.7h-66.6c-3.7,0-6.7-3-6.7-6.7v-66.6
			c0-3.7,3-6.7,6.7-6.7h66.6c3.7,0,6.7,3,6.7,6.7V429.8z M163.7,368.1c-1.7,1.7-4.5,1.7-6.2,0c-1.7-1.7-1.7-4.5,0-6.2
			c0.8-0.8,1.9-1.3,3.1-1.3c1.2,0,2.3,0.5,3.1,1.3C165.4,363.6,165.4,366.4,163.7,368.1z M134,400.3l-0.8-0.5
			c-1.5,1.4-3.7,1.6-5.4,0.4c-1.7-1.2-2.4-3.4-1.6-5.4c0.7-1.7,2.3-2.7,4.1-2.7c0.3,0,0.6,0,0.9,0.1c2.1,0.4,3.6,2.2,3.6,4.3
			c0,1.2-0.5,2.3-1.3,3.1L134,400.3L134,400.3z M164.3,431.8l-0.8-0.5c-1.7,1.6-4.4,1.6-6.1-0.1c-1.7-1.7-1.7-4.5,0-6.2
			c0.8-0.8,1.9-1.3,3.1-1.3c1.2,0,2.3,0.5,3.1,1.3c1.7,1.7,1.7,4.5,0,6.2L164.3,431.8z M332.9,428.1c0-1.2,0.5-2.3,1.3-3.1l0,0
			c0.8-0.8,1.9-1.3,3.1-1.3c1.2,0,2.3,0.5,3.1,1.3c0.8,0.8,1.3,1.9,1.3,3.1s-0.5,2.3-1.3,3.1c-1.7,1.7-4.6,1.7-6.2,0
			C333.4,430.3,332.9,429.2,332.9,428.1z"/>
		<path class="st0" d="M277.3,363.2h-56.6c-2.8,0-5.1,2.3-5.1,5.1v56.6c0,2.8,2.3,5.1,5.1,5.1h56.6c2.8,0,5.1-2.3,5.1-5.1v-56.6
			C282.3,365.5,280.1,363.2,277.3,363.2z M225.8,419.7v-46.4h46.4v46.4H225.8z"/>
	</g>
</g>
</svg>
