<?xml version="1.0" encoding="utf-8"?>
<!-- Generator: Adobe Illustrator 22.0.1, SVG Export Plug-In . SVG Version: 6.00 Build 0)  -->
<svg version="1.1" id="Layer_1" xmlns="http://www.w3.org/2000/svg" xmlns:xlink="http://www.w3.org/1999/xlink" x="0px" y="0px"
	 viewBox="0 0 337.5 444.8" style="enable-background:new 0 0 337.5 444.8;" xml:space="preserve">
<style type="text/css">
	.st0{fill:#222629;}
</style>
<g>
	<path class="st0" d="M329.7,58.6c-0.5-18.1-15.3-35.4-33.1-38.6L196.3,2c-14.4-2.6-37.8-2.6-52.2-0.1l-103,18.2
		C23.3,23.3,8.4,40.5,7.9,58.6L0.2,345.4c-0.1,2.2-0.2,4-0.2,5.8c0,22.6,25.8,45,76.7,66.7c37.2,15.8,78.3,26.9,91.8,26.9
		c22.6,0,120.6-29.4,154.9-65.2c2.7-2.6,5.1-5.6,7.1-8.6c3.7-5.5,5.8-11,6.4-16.6c0.4-2.4,0.5-4.7,0.5-6.9L329.7,58.6z M317.8,348
		c0,1.1-0.1,2.3-0.3,3.6l-0.1,0.6c-0.2,2.4-1.3,5-3.2,7.9l-0.2,0.2c-1.2,1.9-2.6,3.6-4.4,5.4c-30.7,32-125.1,59.4-141,59.4
		c-9.7,0-47-9.8-83.3-25.1c-41.1-17.3-65.6-35.6-65.6-48.8c0-1.3,0.1-2.8,0.2-4.7l7.7-287.3c0.2-8.9,8.1-18.1,16.9-19.6l103-18.2
		c5.7-1,13.9-1.6,22.3-1.6c8.7,0,17.1,0.6,22.9,1.7L293,39.4c8.8,1.6,16.7,10.8,16.9,19.7L317.8,348z"/>
	<path class="st0" d="M150.2,125.7c0-3.2-2.6-5.8-5.8-5.8c-3.2,0-5.8,2.6-5.8,5.8c0,3.2,2.6,5.8,5.8,5.8
		C147.6,131.4,150.2,128.8,150.2,125.7z"/>
	<path class="st0" d="M62,225.6l0.4,0.6c2.6,3.8,5.2,5.7,6.6,6.7c0.2,0.2,0.5,0.3,0.6,0.5c1,0.8,2.1,1.6,3.4,2.5l0.6,0.4
		c0.4,0.2,0.7,0.4,1.1,0.6c1.6,0.9,3.2,1.7,4.9,2.3c0.7,0.3,1.4,0.5,2.2,0.7c0.3,0.1,0.6,0.2,0.8,0.2c0.4,0.1,0.8,0.2,1.4,0.3
		l0.3,0.1c0.3,0.1,0.6,0.1,1,0.2c1.9,0.3,3.7,0.5,5.5,0.5c3.2,0,5.8-2.6,5.8-5.8c0-3.2-2.6-5.8-5.8-5.8c-12.5,0-23.4-11.6-23.4-24.9
		c0-8,4.1-15.4,10.9-19.7c2.6-1.6,3.4-5,1.9-7.7c-2.1-3.7-3.1-7.5-3.1-11.5c0-13.2,10.9-24.9,23.4-24.9s23.4,11.6,23.4,24.9
		c0,3.2,2.6,5.8,5.8,5.8c3.2,0,5.8-2.6,5.8-5.8c0-19.7-16-36.4-34.9-36.4c-1.3,0-2.6,0.1-3.9,0.2c0.3-9.9,8.5-17.9,18.5-17.9
		c5,0,9.6,1.9,13.1,5.4c2.3,2.2,5.9,2.2,8.2,0c1.1-1.1,1.7-2.5,1.7-4.1c0-1.5-0.6-3-1.7-4.1c-4.2-4.2-9.4-7-15.2-8.2
		c4.7-6.3,11.4-10,18.2-10c12.5,0,23.4,11.6,23.4,24.9v36.6c-2.7-1.3-5.8-2-8.8-2c-3.2,0-5.8,2.6-5.8,5.8c0,3.2,2.6,5.8,5.8,5.8
		c4.9,0,8.8,4,8.8,8.8v36l0,0.9h0.1c0.5,2.7,2.8,4.8,5.7,4.8c3.2,0,5.7-2.6,5.8-5.8v-36c0-4.9,4-8.8,8.8-8.8c3.2,0,5.8-2.6,5.8-5.8
		c0-3.2-2.6-5.8-5.8-5.8c-3.1,0-6.1,0.7-8.8,2V116c0-13.2,10.9-24.9,23.4-24.9c6.8,0,13.6,3.7,18.2,10c-5.8,1.2-11,4-15.2,8.2
		c-1.1,1.1-1.7,2.5-1.7,4.1c0,1.5,0.6,3,1.7,4.1c1.1,1.1,2.5,1.7,4.1,1.7c0,0,0,0,0,0c1.5,0,3-0.6,4.1-1.7c3.5-3.5,8.2-5.4,13.1-5.4
		c10,0,18.2,8,18.5,17.9c-1.3-0.2-2.6-0.2-3.9-0.2c-18.9,0-34.9,16.7-34.9,36.4c0,3.2,2.6,5.8,5.8,5.8c3.2,0,5.8-2.6,5.8-5.8
		c0-13.2,10.9-24.9,23.4-24.9s23.4,11.6,23.4,24.9c0,3.9-1.1,7.8-3.1,11.5c-1.5,2.7-0.7,6.1,1.9,7.7c6.8,4.3,10.9,11.7,10.9,19.7
		c0,13.2-10.9,24.9-23.4,24.9c-3.2,0-5.8,2.6-5.8,5.8c0,3.2,2.6,5.8,5.8,5.8c7.3,0,14.5-2.6,20.6-7.3l0,0l1.2-1
		c0.2-0.1,0.4-0.3,0.6-0.5c1.3-1,3.7-2.8,6.2-6.3l0.3-0.6l0,0c3.8-6,6.1-13.7,6.1-20.8c0-10.2-4.4-19.8-12.1-26.4
		c1.6-4,2.4-8.2,2.4-12.5c0-13.6-7.7-26.3-19.6-32.6c1.5-14.7-8.1-28.3-22.4-32c-5.8-13.1-18.6-21.8-31.8-21.8
		c-11.6,0-22.6,6.3-29.2,16.7c-6.5-10.3-17.6-16.7-29.2-16.7c-13.2,0-25.9,8.8-31.8,21.8c-14.4,3.7-23.9,17.3-22.4,32
		c-11.9,6.2-19.6,19-19.6,32.6c0,4.3,0.8,8.5,2.4,12.5c-7.7,6.6-12.1,16.2-12.1,26.4C56,212,58.3,219.7,62,225.6L62,225.6z"/>
	<path class="st0" d="M110.4,208.8c-3.2,0-5.8,2.6-5.8,5.8s2.6,5.8,5.8,5.8c11.9,0,22.1-8.3,24.6-19.8c6.8-1,13-3.9,18.1-8.5
		c2.4-2.1,2.6-5.8,0.5-8.1c-1-1.1-2.4-1.8-4-1.9c-1.5-0.1-3,0.4-4.2,1.5c-6.9,6.2-16.6,7.7-25.1,3.9c-8.6-3.8-13.9-12-13.9-21.3
		c0-3.2-2.6-5.8-5.8-5.8s-5.8,2.6-5.8,5.8c0,16.8,11.8,31.1,28.2,34.3C121,205.4,116.1,208.8,110.4,208.8z"/>
	<path class="st0" d="M242.5,166c0-3.2-2.6-5.8-5.8-5.8c-3.2,0-5.8,2.6-5.8,5.8c0,12.9-10.5,23.4-23.4,23.4c-5.8,0-11.3-2.1-15.6-6
		c-1.1-1-2.6-1.6-4.2-1.5c-1.5,0.1-3,0.8-4,1.9c-1,1.1-1.5,2.6-1.5,4.2c0.1,1.5,0.8,3,1.9,4c5.1,4.6,11.3,7.5,18.1,8.5
		c2.5,11.5,12.8,19.8,24.6,19.8c3.2,0,5.8-2.6,5.8-5.8s-2.6-5.8-5.8-5.8c-5.6,0-10.6-3.4-12.7-8.6
		C230.8,197.1,242.5,182.8,242.5,166z"/>
	<path class="st0" d="M198.8,125.7c0-3.2-2.6-5.8-5.8-5.8c-3.2,0-5.8,2.6-5.8,5.8c0,3.2,2.6,5.8,5.8,5.8
		C196.2,131.4,198.8,128.8,198.8,125.7z"/>
	<path class="st0" d="M294.8,286.3c-5.7-3.3-12.9-2.4-17.6,2.3c-1.5,1.5-2.6,3.3-3.4,5.2h-54.9v-2h4.9c8.1,0,14.7-6.6,14.7-14.7
		c0-2.5,2.1-4.6,4.6-4.6h0.3c2.3,6.3,8.8,10.2,15.5,9.4c7.2-0.9,12.7-7.1,12.7-14.4c0-7.3-5.5-13.5-12.7-14.4
		c-6.7-0.9-13.1,3-15.5,9.4h-0.3c-8.1,0-14.7,6.6-14.7,14.7c0,2.5-2.1,4.6-4.6,4.6h-4.9v-16.1c0-9.3-7.6-16.8-16.8-16.8l-5.8,0V241
		l-1.2,0l0,0l1.2,0c0-2.8-2.3-5-5-5c-2.7,0-5,2.2-5,5v7.8l-12.4,0l0-22.9c0-2.8-2.3-5-5-5c-2.7,0-5,2.2-5,5l0,22.8l-12.4,0V241
		l-1.2,0l0,0l1.2,0c0-2.8-2.3-5-5-5c-2.7,0-5,2.2-5,5v7.8l-5.8,0c-9.3,0-16.8,7.6-16.8,16.8v16h-4.9c-2.5,0-4.6-2.1-4.6-4.6
		c0-8.1-6.6-14.7-14.7-14.7H94c-2.3-6.3-8.7-10.2-15.5-9.4c-7.2,0.9-12.7,7.1-12.7,14.4s5.5,13.5,12.7,14.4c6.7,0.9,13.1-3,15.5-9.4
		h0.3c2.5,0,4.6,2.1,4.6,4.6c0,8.1,6.6,14.7,14.7,14.7h4.9v2H63.7c-2.3-6.3-8.8-10.2-15.5-9.4c-7.2,0.9-12.7,7.1-12.7,14.4
		c0,7.3,5.5,13.5,12.7,14.4c6.7,0.9,13.2-3,15.5-9.4h54.9v2h-4.9c-8.1,0-14.7,6.6-14.7,14.7c0,2.5-2.1,4.6-4.6,4.6H94
		c-2.3-6.3-8.7-10.2-15.5-9.4c-7.2,0.9-12.7,7.1-12.7,14.4c0,7.3,5.5,13.5,12.7,14.4c6.8,0.9,13.2-3,15.5-9.4h0.3
		c8.1,0,14.7-6.6,14.7-14.7c0-2.5,2.1-4.6,4.6-4.6h4.9v16c0,9.3,7.6,16.8,16.8,16.8H202c9.3,0,16.8-7.6,16.8-16.8v-16h4.9
		c2.5,0,4.6,2.1,4.6,4.6c0,8.1,6.6,14.7,14.7,14.7h0.3c2.3,6.3,8.7,10.2,15.5,9.4c7.2-0.9,12.7-7.1,12.7-14.4s-5.5-13.5-12.7-14.4
		c-6.8-0.9-13.2,3-15.5,9.4h-0.3c-2.5,0-4.6-2.1-4.6-4.6c0-8.1-6.6-14.7-14.7-14.7h-4.9v-2h54.9c2.1,5.7,7.5,9.5,13.7,9.5
		c6.6,0,12.3-4.4,14.1-10.7C303.2,296.4,300.5,289.6,294.8,286.3z M290.6,302c-0.8,0.8-1.9,1.3-3.1,1.3c0,0,0,0,0,0
		c-1.2,0-2.3-0.5-3.1-1.3c-0.8-0.8-1.3-1.9-1.3-3.1c0-1.2,0.5-2.3,1.3-3.1c0.8-0.8,1.9-1.3,3.1-1.3c1.2,0,2.3,0.5,3.1,1.3
		C292.3,297.5,292.3,300.3,290.6,302z M252.7,267.4c0-1.2,0.5-2.3,1.3-3.1l0,0c0.8-0.8,1.9-1.3,3.1-1.3c1.2,0,2.3,0.5,3.1,1.3
		c0.8,0.8,1.3,1.9,1.3,3.1s-0.5,2.3-1.3,3.1c-0.8,0.8-1.9,1.3-3.1,1.3h0c-1.2,0-2.3-0.5-3.1-1.3
		C253.1,269.7,252.7,268.6,252.7,267.4z M208.7,332.2c0,3.7-3,6.7-6.7,6.7h-66.6c-3.7,0-6.7-3-6.7-6.7v-66.6c0-3.7,3-6.7,6.7-6.7
		H202c3.7,0,6.7,3,6.7,6.7V332.2z M83.5,270.5c-1.7,1.7-4.5,1.7-6.2,0c-1.7-1.7-1.7-4.5,0-6.2c0.8-0.8,1.9-1.3,3.1-1.3
		c1.2,0,2.3,0.5,3.1,1.3C85.2,266,85.2,268.8,83.5,270.5z M53.8,302.7l-0.8-0.5c-1.5,1.4-3.7,1.6-5.4,0.4c-1.7-1.2-2.4-3.4-1.6-5.4
		c0.7-1.7,2.3-2.7,4.1-2.7c0.3,0,0.6,0,0.9,0.1c2.1,0.4,3.6,2.2,3.6,4.3c0,1.2-0.5,2.3-1.3,3.1L53.8,302.7L53.8,302.7z M84.1,334.2
		l-0.8-0.5c-1.7,1.6-4.4,1.6-6.1-0.1c-1.7-1.7-1.7-4.5,0-6.2c0.8-0.8,1.9-1.3,3.1-1.3c1.2,0,2.3,0.5,3.1,1.3c1.7,1.7,1.7,4.5,0,6.2
		L84.1,334.2z M252.7,330.4c0-1.2,0.5-2.3,1.3-3.1l0,0c0.8-0.8,1.9-1.3,3.1-1.3c1.2,0,2.3,0.5,3.1,1.3c0.8,0.8,1.3,1.9,1.3,3.1
		s-0.5,2.3-1.3,3.1c-1.7,1.7-4.6,1.7-6.2,0C253.1,332.7,252.7,331.6,252.7,330.4z"/>
	<path class="st0" d="M197,265.6h-56.6c-2.8,0-5.1,2.3-5.1,5.1v56.6c0,2.8,2.3,5.1,5.1,5.1H197c2.8,0,5.1-2.3,5.1-5.1v-56.6
		C202.1,267.8,199.8,265.6,197,265.6z M145.5,322.1v-46.4h46.4v46.4H145.5z"/>
</g>
</svg>
